# xmcd
# 
# Track frame offsets:
#     150
#     11631
#     36313
#     54214
#     73955
#     91318
#     102352
#     117514
#     136710
#     153584
#     170633
#     184630
#     209766
# 
# Disc length: 3172
# 
# Revision: 1
# Processed by: cddbd v1.5.2PL0 Copyright (c) Steve Scherf et al.
# Submitted via: BonkEnc v1.0.6
# 
DISCID=b90c620d
DTITLE=Ben Harper - Welcome to the Cruel World
DYEAR=1993
DGENRE=Blues
TTITLE0=The Three of Us
TTITLE1=Whipping Boy
TTITLE2=Breakin' Down
TTITLE3=Don't Take That Attitude to Your Grave
TTITLE4=Waiting on an Angel
TTITLE5=Mama's Got a Girlfriend Now
TTITLE6=Forever
TTITLE7=Like a King
TTITLE8=Pleasure and Pain
TTITLE9=Walk Away
TTITLE10=How Many Miles Must We March
TTITLE11=Welcome to the Cruel World
TTITLE12=I'll Rise
EXTD=
EXTT0=
EXTT1=
EXTT2=
EXTT3=
EXTT4=
EXTT5=
EXTT6=
EXTT7=
EXTT8=
EXTT9=
EXTT10=
EXTT11=
EXTT12=
PLAYORDER=
